<?xml version="1.0" encoding="UTF-8" standalone="no"?>
<svg
   xmlns:dc="http://purl.org/dc/elements/1.1/"
   xmlns:cc="http://creativecommons.org/ns#"
   xmlns:rdf="http://www.w3.org/1999/02/22-rdf-syntax-ns#"
   xmlns:svg="http://www.w3.org/2000/svg"
   xmlns="http://www.w3.org/2000/svg"
   id="svg10"
   viewBox="0 0 21000 29700"
   style="shape-rendering:geometricPrecision; text-rendering:geometricPrecision; image-rendering:optimizeQuality; fill-rule:evenodd; clip-rule:evenodd"
   version="1.1"
   height="297mm"
   width="210mm"
   xml:space="preserve"><metadata
     id="metadata14"><rdf:RDF><cc:Work
         rdf:about=""><dc:format>image/svg+xml</dc:format><dc:type
           rdf:resource="http://purl.org/dc/dcmitype/StillImage" /></cc:Work></rdf:RDF></metadata><defs
     id="defs4"><style
       id="style2"
       type="text/css"><![CDATA[
    .fil0 {fill:red}
   ]]></style></defs><g
     id="Слой_x0020_1"><metadata
       id="CorelCorpID_0Corel-Layer" /><path
       id="path7"
       d="M5454 15435l550 -3 -349 1102 -535 -1 334 -1098zm473 -1528l334 658 -243 795 -536 -1 445 -1452zm28 -163l557 -2 842 1667 -3 1078 -1396 -2743zm770 1726l134 289 -835 1 92 -289 609 -1zm702 1064l504 0 0 -1647 -526 -983 22 2630zm1931 -2471l4 685 -851 966 -250 -441 1097 -1210zm-1934 -327l541 12 587 1062 -350 381 -778 -1455zm2012 4l537 0 0 338 -174 199 174 -1 0 73 -182 0 5 497 177 195 0 646 -178 1 5 390 173 150 0 305 -537 0 0 -2793zm951 1166l1005 0 0 537 -1005 0 0 -537zm-114 -1173l1115 0 0 537 -1589 7 474 -544zm-473 2345l510 443 0 -834 -515 1 5 390zm-4 -1232l510 565 0 -1062 -515 0 5 497zm1702 1692l-1115 -6 3 -536 1589 1 -477 541zm480 -1092l-511 -525 2 990 516 -1 -7 -464zm1 -1253l-509 -445 -4 833 516 3 -3 -391z"
       class="fil0" /></g></svg>