<svg width="102" height="49" viewBox="0 0 205 98" fill="none" xmlns="http://www.w3.org/2000/svg">
<path fill-rule="evenodd" clip-rule="evenodd" d="M22.4655 43.0809L36.4058 43.005L27.5601 70.8988L14 70.8734L22.4655 43.0809ZM34.4542 4.40428L42.9197 21.0595L36.7607 41.1825L23.1752 41.1572L34.4542 4.40428ZM35.1639 0.278431L49.2816 0.227807L70.6229 42.4228L70.5468 69.7091L35.1639 0.278431ZM54.6803 43.9668L58.0766 51.282L36.9127 51.3073L39.2446 43.9922L54.6803 43.9668ZM72.4731 70.8988H85.2475V29.21L71.9155 4.32834L72.4731 70.8988ZM121.416 8.35294L121.518 25.6916L99.9481 50.143L93.6117 38.9804L121.416 8.35294ZM72.3971 0.0759358L86.1092 0.379679L100.987 27.261L92.1162 36.9048L72.3971 0.0759358ZM123.393 0.177184H137.004V8.73262L132.594 13.7697L137.004 13.7444V15.5922H132.391L132.518 28.1722L137.004 33.108V49.4595L132.492 49.4848L132.619 59.3565L137.004 63.1533V70.8734H123.393V0.177184ZM147.497 29.6909H172.97V43.2834H147.497V29.6909ZM144.608 0H172.868V13.5925L132.594 13.7697L144.608 0ZM132.619 59.3565L145.546 70.5697V49.4595L132.492 49.4848L132.619 59.3565ZM132.518 28.1722L145.444 42.4734V15.5922H132.391L132.518 28.1722ZM175.657 71L147.396 70.8481L147.472 57.2809L187.747 57.3062L175.657 71ZM187.823 43.3594L174.871 30.0706L174.921 55.1294L188 55.1041L187.823 43.3594ZM187.848 11.6435L174.947 0.379679L174.845 21.4645L187.924 21.5405L187.848 11.6435Z" fill="#FF0000"/>
<path d="M9.29688 90.0703H4.16016L3.18359 93H0.0683594L5.36133 78.7812H8.07617L13.3984 93H10.2832L9.29688 90.0703ZM4.95117 87.6973H8.50586L6.71875 82.375L4.95117 87.6973ZM25.7125 78.7812V88.1465C25.7125 89.7025 25.2242 90.9329 24.2477 91.8379C23.2776 92.7428 21.9495 93.1953 20.2633 93.1953C18.6031 93.1953 17.2848 92.7559 16.3082 91.877C15.3316 90.998 14.8336 89.7904 14.8141 88.2539V78.7812H17.7437V88.166C17.7437 89.097 17.9651 89.7773 18.4078 90.207C18.857 90.6302 19.4755 90.8418 20.2633 90.8418C21.9104 90.8418 22.747 89.9759 22.773 88.2441V78.7812H25.7125ZM39.218 81.1543H34.8625V93H31.9328V81.1543H27.6359V78.7812H39.218V81.1543ZM52.7039 86.2129C52.7039 87.6126 52.4565 88.8398 51.9617 89.8945C51.4669 90.9492 50.7573 91.763 49.8328 92.3359C48.9148 92.9089 47.8602 93.1953 46.6688 93.1953C45.4904 93.1953 44.4389 92.9121 43.5145 92.3457C42.59 91.7793 41.8738 90.972 41.366 89.9238C40.8582 88.8691 40.601 87.6582 40.5945 86.291V85.5879C40.5945 84.1882 40.8452 82.9577 41.3465 81.8965C41.8543 80.8288 42.5672 80.0117 43.4852 79.4453C44.4096 78.8724 45.4643 78.5859 46.6492 78.5859C47.8341 78.5859 48.8855 78.8724 49.8035 79.4453C50.728 80.0117 51.4409 80.8288 51.9422 81.8965C52.45 82.9577 52.7039 84.1849 52.7039 85.5781V86.2129ZM49.7352 85.5684C49.7352 84.0775 49.4682 82.9447 48.9344 82.1699C48.4005 81.3952 47.6388 81.0078 46.6492 81.0078C45.6661 81.0078 44.9077 81.3919 44.3738 82.1602C43.84 82.9219 43.5698 84.0417 43.5633 85.5195V86.2129C43.5633 87.6647 43.8302 88.791 44.3641 89.5918C44.8979 90.3926 45.6661 90.793 46.6688 90.793C47.6518 90.793 48.407 90.4089 48.9344 89.6406C49.4617 88.8659 49.7286 87.7396 49.7352 86.2617V85.5684ZM59.0609 78.7812L62.7133 89.0938L66.3461 78.7812H70.1937V93H67.2543V89.1133L67.5473 82.4043L63.7094 93H61.6977L57.8695 82.4141L58.1625 89.1133V93H55.2328V78.7812H59.0609ZM84.832 86.2129C84.832 87.6126 84.5846 88.8398 84.0898 89.8945C83.5951 90.9492 82.8854 91.763 81.9609 92.3359C81.043 92.9089 79.9883 93.1953 78.7969 93.1953C77.6185 93.1953 76.5671 92.9121 75.6426 92.3457C74.7181 91.7793 74.002 90.972 73.4941 89.9238C72.9863 88.8691 72.7292 87.6582 72.7227 86.291V85.5879C72.7227 84.1882 72.9733 82.9577 73.4746 81.8965C73.9824 80.8288 74.6953 80.0117 75.6133 79.4453C76.5378 78.8724 77.5924 78.5859 78.7773 78.5859C79.9622 78.5859 81.0137 78.8724 81.9316 79.4453C82.8561 80.0117 83.569 80.8288 84.0703 81.8965C84.5781 82.9577 84.832 84.1849 84.832 85.5781V86.2129ZM81.8633 85.5684C81.8633 84.0775 81.5964 82.9447 81.0625 82.1699C80.5286 81.3952 79.7669 81.0078 78.7773 81.0078C77.7943 81.0078 77.0358 81.3919 76.502 82.1602C75.9681 82.9219 75.6979 84.0417 75.6914 85.5195V86.2129C75.6914 87.6647 75.9583 88.791 76.4922 89.5918C77.026 90.3926 77.7943 90.793 78.7969 90.793C79.7799 90.793 80.5352 90.4089 81.0625 89.6406C81.5898 88.8659 81.8568 87.7396 81.8633 86.2617V85.5684ZM97.2242 81.1543H92.8688V93H89.9391V81.1543H85.6422V78.7812H97.2242V81.1543ZM110.71 86.2129C110.71 87.6126 110.463 88.8398 109.968 89.8945C109.473 90.9492 108.764 91.763 107.839 92.3359C106.921 92.9089 105.866 93.1953 104.675 93.1953C103.497 93.1953 102.445 92.9121 101.521 92.3457C100.596 91.7793 99.8801 90.972 99.3723 89.9238C98.8645 88.8691 98.6073 87.6582 98.6008 86.291V85.5879C98.6008 84.1882 98.8514 82.9577 99.3527 81.8965C99.8605 80.8288 100.573 80.0117 101.491 79.4453C102.416 78.8724 103.471 78.5859 104.655 78.5859C105.84 78.5859 106.892 78.8724 107.81 79.4453C108.734 80.0117 109.447 80.8288 109.948 81.8965C110.456 82.9577 110.71 84.1849 110.71 85.5781V86.2129ZM107.741 85.5684C107.741 84.0775 107.474 82.9447 106.941 82.1699C106.407 81.3952 105.645 81.0078 104.655 81.0078C103.672 81.0078 102.914 81.3919 102.38 82.1602C101.846 82.9219 101.576 84.0417 101.57 85.5195V86.2129C101.57 87.6647 101.836 88.791 102.37 89.5918C102.904 90.3926 103.672 90.793 104.675 90.793C105.658 90.793 106.413 90.4089 106.941 89.6406C107.468 88.8659 107.735 87.7396 107.741 86.2617V85.5684ZM120.612 89.2695C120.612 88.7161 120.417 88.293 120.026 88C119.636 87.7005 118.932 87.388 117.917 87.0625C116.901 86.7305 116.097 86.4049 115.505 86.0859C113.89 85.2135 113.083 84.0384 113.083 82.5605C113.083 81.7923 113.298 81.1087 113.727 80.5098C114.164 79.9043 114.785 79.4323 115.593 79.0938C116.406 78.7552 117.318 78.5859 118.327 78.5859C119.343 78.5859 120.248 78.7715 121.042 79.1426C121.836 79.5072 122.451 80.0247 122.887 80.6953C123.33 81.3659 123.552 82.1276 123.552 82.9805H120.622C120.622 82.3294 120.417 81.8249 120.007 81.4668C119.596 81.1022 119.02 80.9199 118.278 80.9199C117.562 80.9199 117.005 81.0729 116.608 81.3789C116.211 81.6784 116.012 82.0755 116.012 82.5703C116.012 83.0326 116.244 83.4199 116.706 83.7324C117.175 84.0449 117.861 84.3379 118.766 84.6113C120.433 85.1126 121.647 85.7344 122.409 86.4766C123.171 87.2188 123.552 88.1432 123.552 89.25C123.552 90.4805 123.086 91.4473 122.155 92.1504C121.224 92.847 119.971 93.1953 118.395 93.1953C117.302 93.1953 116.305 92.9967 115.407 92.5996C114.509 92.196 113.822 91.6458 113.346 90.9492C112.878 90.2526 112.643 89.4453 112.643 88.5273H115.583C115.583 90.0964 116.52 90.8809 118.395 90.8809C119.092 90.8809 119.636 90.7409 120.026 90.4609C120.417 90.1745 120.612 89.7773 120.612 89.2695ZM136.705 78.7812V88.1465C136.705 89.7025 136.217 90.9329 135.241 91.8379C134.271 92.7428 132.942 93.1953 131.256 93.1953C129.596 93.1953 128.278 92.7559 127.301 91.877C126.325 90.998 125.827 89.7904 125.807 88.2539V78.7812H128.737V88.166C128.737 89.097 128.958 89.7773 129.401 90.207C129.85 90.6302 130.468 90.8418 131.256 90.8418C132.903 90.8418 133.74 89.9759 133.766 88.2441V78.7812H136.705ZM142.438 87.9902V93H139.508V78.7812H145.055C146.122 78.7812 147.06 78.9766 147.867 79.3672C148.681 79.7578 149.306 80.3145 149.742 81.0371C150.178 81.7533 150.396 82.5703 150.396 83.4883C150.396 84.8815 149.918 85.9818 148.961 86.7891C148.01 87.5898 146.692 87.9902 145.006 87.9902H142.438ZM142.438 85.6172H145.055C145.829 85.6172 146.419 85.4349 146.822 85.0703C147.232 84.7057 147.438 84.1849 147.438 83.5078C147.438 82.8112 147.232 82.248 146.822 81.8184C146.412 81.3887 145.846 81.1673 145.123 81.1543H142.438V85.6172ZM155.748 87.9902V93H152.818V78.7812H158.365C159.433 78.7812 160.37 78.9766 161.177 79.3672C161.991 79.7578 162.616 80.3145 163.052 81.0371C163.489 81.7533 163.707 82.5703 163.707 83.4883C163.707 84.8815 163.228 85.9818 162.271 86.7891C161.321 87.5898 160.002 87.9902 158.316 87.9902H155.748ZM155.748 85.6172H158.365C159.14 85.6172 159.729 85.4349 160.132 85.0703C160.543 84.7057 160.748 84.1849 160.748 83.5078C160.748 82.8112 160.543 82.248 160.132 81.8184C159.722 81.3887 159.156 81.1673 158.433 81.1543H155.748V85.6172ZM177.808 86.2129C177.808 87.6126 177.56 88.8398 177.066 89.8945C176.571 90.9492 175.861 91.763 174.937 92.3359C174.019 92.9089 172.964 93.1953 171.773 93.1953C170.594 93.1953 169.543 92.9121 168.618 92.3457C167.694 91.7793 166.978 90.972 166.47 89.9238C165.962 88.8691 165.705 87.6582 165.698 86.291V85.5879C165.698 84.1882 165.949 82.9577 166.45 81.8965C166.958 80.8288 167.671 80.0117 168.589 79.4453C169.514 78.8724 170.568 78.5859 171.753 78.5859C172.938 78.5859 173.989 78.8724 174.907 79.4453C175.832 80.0117 176.545 80.8288 177.046 81.8965C177.554 82.9577 177.808 84.1849 177.808 85.5781V86.2129ZM174.839 85.5684C174.839 84.0775 174.572 82.9447 174.038 82.1699C173.504 81.3952 172.743 81.0078 171.753 81.0078C170.77 81.0078 170.012 81.3919 169.478 82.1602C168.944 82.9219 168.674 84.0417 168.667 85.5195V86.2129C168.667 87.6647 168.934 88.791 169.468 89.5918C170.002 90.3926 170.77 90.793 171.773 90.793C172.756 90.793 173.511 90.4089 174.038 89.6406C174.566 88.8659 174.833 87.7396 174.839 86.2617V85.5684ZM185.6 87.7949H183.266V93H180.337V78.7812H185.62C187.3 78.7812 188.595 79.1556 189.507 79.9043C190.418 80.653 190.874 81.7109 190.874 83.0781C190.874 84.0482 190.662 84.8587 190.239 85.5098C189.822 86.1543 189.188 86.6686 188.335 87.0527L191.411 92.8633V93H188.266L185.6 87.7949ZM183.266 85.4219H185.63C186.365 85.4219 186.935 85.2363 187.339 84.8652C187.742 84.4876 187.944 83.9701 187.944 83.3125C187.944 82.6419 187.752 82.1146 187.368 81.7305C186.99 81.3464 186.408 81.1543 185.62 81.1543H183.266V85.4219ZM203.725 81.1543H199.37V93H196.44V81.1543H192.143V78.7812H203.725V81.1543Z" fill="#FF0000"/>
</svg>
